PathFileType	4	(X/Y/Z)	3_coords_data.trc
DataRate	CameraRate	NumFrames	NumMarkers	Units	OrigDataRate	OrigDataStartFrame	OrigNumFrames
30.0	30.0	7	21	m	30.0	1	62
Frame#	Time	THUMB_TIP	THUMB_IP	THUMB_MCP	THUMB_CMC	INDEX_TIP	INDEX_DIP	INDEX_PIP	INDEX_MCP	MIDDLE_TIP	MIDDLE_DIP	MIDDLE_PIP	MIDDLE_MCP	RING_TIP	RING_DIP	RING_PIP	RING_MCP	PINKY_TIP	PINKY_DIP	PINKY_PIP	PINKY_MCP	WRIST
X1	Y1	Z1	X2	Y2	Z2	X3	Y3	Z3	X4	Y4	Z4	X5	Y5	Z5	X6	Y6	Z6	X7	Y7	Z7	X8	Y8	Z8	X9	Y9	Z9	X10	Y10	Z10	X11	Y11	Z11	X12	Y12	Z12	X13	Y13	Z13	X14	Y14	Z14	X15	Y15	Z15	X16	Y16	Z16	X17	Y17	Z17	X18	Y18	Z18	X19	Y19	Z19	X20	Y20	Z20	X21	Y21	Z21
0	0.0	-0.13473199462890625	-0.04927410125732422	0.9222360229492188	-0.126052001953125	-0.06905239868164062	0.9326439819335938	-0.12520500183105468	-0.07369029998779297	0.9659500122070312	-0.12268000030517578	-0.05642070007324219	0.99356201171875	-0.20453399658203125	-0.1072979965209961	0.8865009765625	-0.19484700012207032	-0.10264099884033204	0.9068800048828125	-0.18586000061035157	-0.09557199859619141	0.9264530029296875	-0.16873399353027344	-0.08458519744873047	0.9632830200195313	-0.1402149963378906	-0.06711360168457031	0.9315070190429687	-0.14851899719238282	-0.0681260986328125	0.9184940185546875	-0.17736900329589844	-0.06966809844970703	0.9225349731445313	-0.18093299865722656	-0.06636969757080079	0.9640449829101563	-0.14013600158691406	-0.05172539901733399	0.9326649780273437	-0.15553799438476562	-0.04770159912109375	0.917541015625	-0.1799600067138672	-0.04448849868774414	0.92481201171875	-0.17439799499511718	-0.04423619842529297	0.9584110107421875	-0.1847030029296875	-0.012725899696350098	0.8955040283203125	-0.18213200378417968	-0.016052200317382814	0.9152760009765625	-0.17469999694824218	-0.02027949905395508	0.933594970703125	-0.16508399963378906	-0.02556019973754883	0.9561820068359375	-0.13452099609375	-0.03563690185546875	1.0182999877929688
1	0.03333333333333333	-0.1350850067138672	-0.04924720001220703	0.921406982421875	-0.12583399963378905	-0.06980169677734376	0.9347479858398438	-0.12502799987792967	-0.07443710327148438	0.9661580200195312	-0.12515599822998047	-0.05466049957275391	0.9939739990234375	-0.20446299743652344	-0.10637300109863282	0.887218994140625	-0.193677001953125	-0.10095800018310547	0.9079730224609375	-0.18482899475097656	-0.09544219970703124	0.928218017578125	-0.1680399932861328	-0.0837686004638672	0.963948974609375	-0.1422519989013672	-0.06629199981689453	0.9331719970703125	-0.14945100402832032	-0.06764700317382813	0.9191890258789063	-0.17665199279785157	-0.06953189849853515	0.9220419921875	-0.179031005859375	-0.06529139709472656	0.9635709838867188	-0.14034300231933594	-0.050323398590087894	0.93102001953125	-0.15303599548339844	-0.048263801574707034	0.9185999755859375	-0.17724699401855468	-0.045749099731445315	0.9245120239257812	-0.17794500732421875	-0.04461819839477539	0.9619349975585938	-0.18388999938964845	-0.01204539966583252	0.8969600219726562	-0.1796820068359375	-0.015924699783325197	0.9157039794921875	-0.17545799255371095	-0.020093799591064453	0.9337239990234375	-0.16511300659179687	-0.026675899505615233	0.9587429809570313	-0.137427001953125	-0.03638100051879883	1.022010009765625
2	0.06666666666666667	-0.1350850067138672	-0.049205699920654294	0.921552001953125	-0.12583599853515626	-0.06985990142822265	0.934822021484375	-0.12509200286865235	-0.07445400238037109	0.9663380126953125	-0.12478900146484374	-0.054912601470947266	0.9939550170898438	-0.2027619934082031	-0.10641500091552734	0.8879630126953125	-0.19338699340820312	-0.10095800018310547	0.9079539794921875	-0.18384500122070313	-0.09539309692382812	0.9284119873046875	-0.16946200561523436	-0.08397239685058594	0.96402197265625	-0.14172500610351563	-0.06694719696044922	0.9342780151367187	-0.1500679931640625	-0.06723739624023438	0.9182009887695313	-0.17674299621582032	-0.06970490264892579	0.9223280029296875	-0.17848500061035155	-0.06552909851074219	0.9637589721679688	-0.14060699462890625	-0.0496880989074707	0.932427001953125	-0.15298899841308594	-0.048428001403808596	0.9188090209960937	-0.1770260009765625	-0.046007598876953125	0.9246309814453125	-0.17611599731445313	-0.04484059906005859	0.9617349853515625	-0.18357899475097655	-0.012174300193786621	0.8970830078125	-0.17949800109863281	-0.015960399627685546	0.9157650146484375	-0.17640699768066406	-0.02039970016479492	0.93393701171875	-0.16491000366210937	-0.026731800079345704	0.9589190063476563	-0.1375050048828125	-0.03612459945678711	1.022780029296875
3	0.1	-0.13526400756835938	-0.049277000427246094	0.9216439819335938	-0.12584200286865235	-0.06992620086669922	0.935156982421875	-0.12518699645996093	-0.0745010986328125	0.9664760131835938	-0.12506700134277343	-0.05474549865722656	0.9939819946289062	-0.20066900634765625	-0.10626999664306641	0.8883140258789063	-0.19281100463867187	-0.10096700286865234	0.9079910278320312	-0.18469900512695311	-0.09538059997558594	0.9283209838867188	-0.16953500366210938	-0.08402310180664062	0.9642000122070312	-0.14199600219726563	-0.06590350341796875	0.9332529907226562	-0.1497100067138672	-0.06702649688720703	0.9188300170898438	-0.17675999450683594	-0.0697051010131836	0.9222860107421875	-0.17913299560546875	-0.06558209991455079	0.9638939819335938	-0.14074899291992188	-0.050205501556396484	0.9308889770507812	-0.15271400451660155	-0.04855089950561523	0.9193259887695312	-0.17678300476074219	-0.046025600433349606	0.9247059936523437	-0.17794200134277344	-0.04482799911499023	0.9620709838867187	-0.18405999755859376	-0.012304599761962891	0.8970440063476562	-0.17956300354003907	-0.016024700164794924	0.915781982421875	-0.17483900451660156	-0.020032600402832033	0.933802978515625	-0.16489500427246093	-0.026619499206542968	0.9587969970703125	-0.13750300598144533	-0.03619210052490234	1.0226300048828125
4	0.13333333333333333	-0.13526400756835938	-0.04910290145874024	0.9219450073242188	-0.12613800048828125	-0.069864501953125	0.9351480102539063	-0.12525399780273438	-0.07437480163574219	0.9666630249023438	-0.1250009994506836	-0.05476380157470703	0.9938369750976562	-0.2022619934082031	-0.10607900238037109	0.8875360107421875	-0.19293400573730468	-0.10078199768066406	0.9079719848632812	-0.18369200134277344	-0.09528179931640625	0.9285120239257812	-0.16947300720214845	-0.08399130249023437	0.9641240234375	-0.14167999267578124	-0.06630750274658204	0.9351170043945313	-0.1498459930419922	-0.06672699737548828	0.9189559936523437	-0.17681199645996093	-0.0696074981689453	0.9223369750976562	-0.17898899841308594	-0.06528099822998047	0.9641729736328125	-0.14059100341796876	-0.04959149932861328	0.9329630126953125	-0.15302299499511718	-0.04844189834594727	0.9191640014648438	-0.1765749969482422	-0.04609479904174805	0.9249979858398437	-0.17779200744628906	-0.04470769882202148	0.9620640258789063	-0.1840590057373047	-0.012285499572753907	0.8970969848632813	-0.17954800415039063	-0.016031000137329103	0.91581298828125	-0.17523399353027344	-0.020062000274658202	0.9339119873046875	-0.16568800354003907	-0.02677090072631836	0.9592239990234375	-0.1373240051269531	-0.03622600173950195	1.0220900268554687
5	0.16666666666666666	-0.13544700622558595	-0.04911299896240234	0.9221400146484375	-0.12620999908447267	-0.0697125015258789	0.9351409912109375	-0.1252760009765625	-0.07412249755859375	0.9666229858398437	-0.12503099822998046	-0.05501910018920898	0.994302978515625	-0.20070399475097656	-0.10591200256347656	0.8881719970703125	-0.19387100219726563	-0.10056400299072266	0.9074879760742187	-0.18366299438476563	-0.09512969970703125	0.9284320068359375	-0.1686280059814453	-0.08380780029296875	0.9641270141601562	-0.1413489990234375	-0.06604010009765625	0.9367960205078125	-0.14887100219726562	-0.06754319763183594	0.9204329833984375	-0.17696200561523437	-0.06944139862060547	0.9223720092773438	-0.1792530059814453	-0.0653291015625	0.96381298828125	-0.14116200256347655	-0.04978630065917969	0.9320809936523438	-0.1535070037841797	-0.048188701629638675	0.9188309936523438	-0.17752099609375	-0.04563000106811523	0.9248079833984375	-0.17776699829101564	-0.044648300170898436	0.9620579833984375	-0.18366700744628905	-0.012295599937438964	0.8970999755859375	-0.17963699340820313	-0.016048599243164062	0.9157949829101563	-0.17513299560546874	-0.01995590019226074	0.9338270263671875	-0.16586799621582032	-0.0265625	0.9589660034179688	-0.1380489959716797	-0.036002601623535156	1.0229500122070312
6	0.2	-0.13559500122070312	-0.04897169876098633	0.922239990234375	-0.12651000213623048	-0.06966950225830078	0.935198974609375	-0.1255070037841797	-0.07422129821777344	0.96639501953125	-0.1257269973754883	-0.05439410018920898	0.994593994140625	-0.20142399597167968	-0.10576999664306641	0.8879879760742188	-0.19298500061035156	-0.10047299957275391	0.9078930053710937	-0.18510400390625	-0.09491549682617187	0.9282550048828125	-0.1700709991455078	-0.08361360168457031	0.9642490234375	-0.14306900024414063	-0.06611759948730468	0.933948974609375	-0.1508520050048828	-0.06619519805908203	0.918344970703125	-0.1770970001220703	-0.06928350067138672	0.9223489990234375	-0.17935200500488283	-0.06502660369873046	0.9638099975585938	-0.14111500549316405	-0.04920119857788086	0.9327949829101563	-0.15352699279785156	-0.04789139938354492	0.9189929809570313	-0.17719200134277344	-0.045542499542236325	0.92502099609375	-0.17908399963378907	-0.044762298583984374	0.9622109985351562	-0.18371200561523438	-0.011988900184631347	0.8971829833984375	-0.1795169982910156	-0.015875399589538573	0.915802001953125	-0.17576199340820312	-0.020056699752807616	0.933947998046875	-0.1650189971923828	-0.026330900192260743	0.9590469970703125	-0.1378459930419922	-0.03597069931030274	1.0227999877929688
